<svg xmlns="http://www.w3.org/2000/svg" width="35" height="35" viewBox="0 0 35 35">
  <g id="noun-stars-4950693" transform="translate(4.613 -408.945)">
    <path id="Path_197" data-name="Path 197" d="M126.688,48.974a3.069,3.069,0,0,0,.556-2.88,2.9,2.9,0,0,0-2.073-1.988l-7.509-1.84a2.132,2.132,0,0,1-1.321-1l-4-6.878a2.811,2.811,0,0,0-4.909,0l-4,6.878a2.132,2.132,0,0,1-1.321,1L94.6,44.106a2.9,2.9,0,0,0-2.073,1.988,3.069,3.069,0,0,0,.556,2.88l5.038,6.091a2.275,2.275,0,0,1,.5,1.619L97.986,64.7a3.021,3.021,0,0,0,1.173,2.67,2.75,2.75,0,0,0,2.8.338l7.112-3.114a2.043,2.043,0,0,1,1.633,0l7.112,3.114a2.752,2.752,0,0,0,2.8-.338,3.022,3.022,0,0,0,1.173-2.67l-.642-8.016a2.275,2.275,0,0,1,.5-1.619Zm-5.614,5.573a3.1,3.1,0,0,0-.687,2.2l.642,8.016a2.221,2.221,0,0,1-.862,1.962,2.022,2.022,0,0,1-2.057.249L111,63.863a2.775,2.775,0,0,0-2.222,0l-7.112,3.114a2.023,2.023,0,0,1-2.056-.249,2.221,2.221,0,0,1-.862-1.962l.642-8.016a3.1,3.1,0,0,0-.687-2.2l-5.038-6.091a2.254,2.254,0,0,1-.409-2.116,2.13,2.13,0,0,1,1.524-1.461l7.509-1.84a2.9,2.9,0,0,0,1.8-1.362l4-6.878a2.065,2.065,0,0,1,3.608,0l4,6.878a2.9,2.9,0,0,0,1.8,1.362L125,44.878a2.129,2.129,0,0,1,1.523,1.461,2.254,2.254,0,0,1-.409,2.116Z" transform="translate(-97 376)" fill="#d97d54"/>
  </g>
</svg>
