<svg xmlns="http://www.w3.org/2000/svg" width="35" height="35" viewBox="0 0 35 35">
  <g id="noun-stars-4950636" transform="translate(-84.008 -25.12)">
    <path id="Path_156" data-name="Path 156" d="M118.388,40.849a2.7,2.7,0,0,0-1.345-4.321l-7.676-1.883a2.554,2.554,0,0,1-1.594-1.209L103.684,26.4a2.491,2.491,0,0,0-4.353,0l-4.088,7.038a2.555,2.555,0,0,1-1.594,1.209l-7.676,1.883a2.7,2.7,0,0,0-1.345,4.321l5.15,6.232a2.733,2.733,0,0,1,.609,1.956l-.656,8.2a2.567,2.567,0,0,0,3.522,2.67l7.271-3.186a2.446,2.446,0,0,1,1.971,0l7.271,3.186a2.567,2.567,0,0,0,3.522-2.67l-.656-8.2a2.733,2.733,0,0,1,.609-1.956Z" transform="translate(0 0)" fill="#d97d54"/>
  </g>
</svg>
