<svg xmlns="http://www.w3.org/2000/svg" width="548.186" height="522.394" viewBox="0 0 548.186 522.394">
  <g id="noun-star-5229818" transform="translate(-75.899 -18.804)">
    <path id="Path_152" data-name="Path 152" d="M623.62,217.62a9.91,9.91,0,0,0-9.43-6.844l-194.89.371L359.425,25.687a9.9,9.9,0,0,0-18.859,0L280.7,211.147l-194.89-.371a9.9,9.9,0,0,0-5.8,17.938l157.86,114.24-60.6,185.21a9.908,9.908,0,0,0,15.254,11.082l157.46-114.83,157.44,114.85a9.9,9.9,0,0,0,15.273-11.1l-60.6-185.21,157.86-114.24A9.913,9.913,0,0,0,623.6,217.62ZM444.65,331.14a9.9,9.9,0,0,0-3.609,11.105l53.285,162.93-138.49-101.03a9.907,9.907,0,0,0-11.68,0l-138.49,101.03,53.285-162.93a9.9,9.9,0,0,0-3.609-11.105l-138.88-100.5,171.42.332h0a9.9,9.9,0,0,0,9.43-6.863l52.676-163.13,52.656,163.13a9.9,9.9,0,0,0,9.434,6.863l171.42-.332Z" fill="#ad7021"/>
  </g>
</svg>
